<mxfile host="app.diagrams.net" modified="2023-05-29T17:15:34.506Z" agent="Mozilla/5.0 (Windows NT 10.0; Win64; x64) AppleWebKit/537.36 (KHTML, like Gecko) Chrome/113.0.0.0 Safari/537.36 Edg/113.0.1774.57" etag="zhnzt4CQoPkRX3EDX-jK" version="21.3.3" type="device">
  <diagram name="Página-1" id="cbMpEI6kvxKModqZBSrH">
    <mxGraphModel dx="1379" dy="764" grid="1" gridSize="10" guides="1" tooltips="1" connect="1" arrows="1" fold="1" page="1" pageScale="1" pageWidth="827" pageHeight="1169" math="0" shadow="0">
      <root>
        <mxCell id="0" />
        <mxCell id="1" parent="0" />
        <mxCell id="x-Y_49Q1ZM7D_lfl-HDQ-4" style="edgeStyle=orthogonalEdgeStyle;rounded=0;orthogonalLoop=1;jettySize=auto;html=1;exitX=0.5;exitY=1;exitDx=0;exitDy=0;exitPerimeter=0;entryX=0.5;entryY=0.26;entryDx=0;entryDy=0;entryPerimeter=0;" edge="1" parent="1" source="x-Y_49Q1ZM7D_lfl-HDQ-2" target="x-Y_49Q1ZM7D_lfl-HDQ-3">
          <mxGeometry relative="1" as="geometry" />
        </mxCell>
        <mxCell id="x-Y_49Q1ZM7D_lfl-HDQ-2" value="INÍCIO" style="strokeWidth=2;html=1;shape=mxgraph.flowchart.terminator;whiteSpace=wrap;" vertex="1" parent="1">
          <mxGeometry x="364" y="40" width="100" height="40" as="geometry" />
        </mxCell>
        <mxCell id="x-Y_49Q1ZM7D_lfl-HDQ-40" style="edgeStyle=orthogonalEdgeStyle;rounded=0;orthogonalLoop=1;jettySize=auto;html=1;exitX=0.5;exitY=1;exitDx=0;exitDy=0;entryX=0.5;entryY=0;entryDx=0;entryDy=0;entryPerimeter=0;" edge="1" parent="1" source="x-Y_49Q1ZM7D_lfl-HDQ-3" target="x-Y_49Q1ZM7D_lfl-HDQ-5">
          <mxGeometry relative="1" as="geometry" />
        </mxCell>
        <mxCell id="x-Y_49Q1ZM7D_lfl-HDQ-3" value="&lt;br&gt;SALDO" style="html=1;strokeWidth=2;shape=manualInput;whiteSpace=wrap;rounded=1;size=26;arcSize=11;" vertex="1" parent="1">
          <mxGeometry x="364" y="120" width="100" height="50" as="geometry" />
        </mxCell>
        <mxCell id="x-Y_49Q1ZM7D_lfl-HDQ-10" style="edgeStyle=orthogonalEdgeStyle;rounded=0;orthogonalLoop=1;jettySize=auto;html=1;exitX=1;exitY=0.5;exitDx=0;exitDy=0;exitPerimeter=0;" edge="1" parent="1" source="x-Y_49Q1ZM7D_lfl-HDQ-5">
          <mxGeometry relative="1" as="geometry">
            <mxPoint x="530" y="270" as="targetPoint" />
          </mxGeometry>
        </mxCell>
        <mxCell id="x-Y_49Q1ZM7D_lfl-HDQ-12" style="edgeStyle=orthogonalEdgeStyle;rounded=0;orthogonalLoop=1;jettySize=auto;html=1;exitX=0;exitY=0.5;exitDx=0;exitDy=0;exitPerimeter=0;" edge="1" parent="1" source="x-Y_49Q1ZM7D_lfl-HDQ-5">
          <mxGeometry relative="1" as="geometry">
            <mxPoint x="300" y="270" as="targetPoint" />
          </mxGeometry>
        </mxCell>
        <mxCell id="x-Y_49Q1ZM7D_lfl-HDQ-5" value="TIPO DE ENTRADA" style="strokeWidth=2;html=1;shape=mxgraph.flowchart.decision;whiteSpace=wrap;" vertex="1" parent="1">
          <mxGeometry x="364" y="220" width="100" height="100" as="geometry" />
        </mxCell>
        <mxCell id="x-Y_49Q1ZM7D_lfl-HDQ-38" style="edgeStyle=orthogonalEdgeStyle;rounded=0;orthogonalLoop=1;jettySize=auto;html=1;exitX=0.5;exitY=1;exitDx=0;exitDy=0;entryX=0.5;entryY=0;entryDx=0;entryDy=0;" edge="1" parent="1" source="x-Y_49Q1ZM7D_lfl-HDQ-6" target="x-Y_49Q1ZM7D_lfl-HDQ-8">
          <mxGeometry relative="1" as="geometry" />
        </mxCell>
        <mxCell id="x-Y_49Q1ZM7D_lfl-HDQ-6" value="&lt;br&gt;TIPO1" style="html=1;strokeWidth=2;shape=manualInput;whiteSpace=wrap;rounded=1;size=26;arcSize=11;" vertex="1" parent="1">
          <mxGeometry x="190" y="240" width="100" height="50" as="geometry" />
        </mxCell>
        <mxCell id="x-Y_49Q1ZM7D_lfl-HDQ-46" style="edgeStyle=orthogonalEdgeStyle;rounded=0;orthogonalLoop=1;jettySize=auto;html=1;exitX=0.5;exitY=1;exitDx=0;exitDy=0;entryX=0.5;entryY=0;entryDx=0;entryDy=0;entryPerimeter=0;" edge="1" parent="1" source="x-Y_49Q1ZM7D_lfl-HDQ-7" target="x-Y_49Q1ZM7D_lfl-HDQ-16">
          <mxGeometry relative="1" as="geometry" />
        </mxCell>
        <mxCell id="x-Y_49Q1ZM7D_lfl-HDQ-7" value="&lt;br&gt;TIPO2" style="html=1;strokeWidth=2;shape=manualInput;whiteSpace=wrap;rounded=1;size=26;arcSize=11;" vertex="1" parent="1">
          <mxGeometry x="550" y="240" width="100" height="50" as="geometry" />
        </mxCell>
        <mxCell id="x-Y_49Q1ZM7D_lfl-HDQ-39" style="edgeStyle=orthogonalEdgeStyle;rounded=0;orthogonalLoop=1;jettySize=auto;html=1;exitX=0.5;exitY=1;exitDx=0;exitDy=0;entryX=0.5;entryY=0;entryDx=0;entryDy=0;entryPerimeter=0;" edge="1" parent="1" source="x-Y_49Q1ZM7D_lfl-HDQ-8" target="x-Y_49Q1ZM7D_lfl-HDQ-13">
          <mxGeometry relative="1" as="geometry" />
        </mxCell>
        <mxCell id="x-Y_49Q1ZM7D_lfl-HDQ-8" value="SALDO = SALDO + QUANTIDADE" style="rounded=1;whiteSpace=wrap;html=1;absoluteArcSize=1;arcSize=14;strokeWidth=2;" vertex="1" parent="1">
          <mxGeometry x="190" y="360" width="100" height="50" as="geometry" />
        </mxCell>
        <mxCell id="x-Y_49Q1ZM7D_lfl-HDQ-51" style="edgeStyle=orthogonalEdgeStyle;rounded=0;orthogonalLoop=1;jettySize=auto;html=1;exitX=0.5;exitY=1;exitDx=0;exitDy=0;entryX=0.5;entryY=0;entryDx=0;entryDy=0;entryPerimeter=0;" edge="1" parent="1" source="x-Y_49Q1ZM7D_lfl-HDQ-9" target="x-Y_49Q1ZM7D_lfl-HDQ-36">
          <mxGeometry relative="1" as="geometry" />
        </mxCell>
        <mxCell id="x-Y_49Q1ZM7D_lfl-HDQ-9" value="SALDO = SALDO - QUANTIDADE" style="rounded=1;whiteSpace=wrap;html=1;absoluteArcSize=1;arcSize=14;strokeWidth=2;" vertex="1" parent="1">
          <mxGeometry x="550" y="480" width="100" height="50" as="geometry" />
        </mxCell>
        <mxCell id="x-Y_49Q1ZM7D_lfl-HDQ-52" style="edgeStyle=orthogonalEdgeStyle;rounded=0;orthogonalLoop=1;jettySize=auto;html=1;exitX=0.5;exitY=1;exitDx=0;exitDy=0;exitPerimeter=0;" edge="1" parent="1" source="x-Y_49Q1ZM7D_lfl-HDQ-13">
          <mxGeometry relative="1" as="geometry">
            <mxPoint x="340" y="670" as="targetPoint" />
            <Array as="points">
              <mxPoint x="240" y="670" />
              <mxPoint x="331" y="670" />
            </Array>
          </mxGeometry>
        </mxCell>
        <mxCell id="x-Y_49Q1ZM7D_lfl-HDQ-13" value="+ QUANTIDADE" style="strokeWidth=2;html=1;shape=mxgraph.flowchart.display;whiteSpace=wrap;" vertex="1" parent="1">
          <mxGeometry x="190" y="475" width="100" height="60" as="geometry" />
        </mxCell>
        <mxCell id="x-Y_49Q1ZM7D_lfl-HDQ-61" style="edgeStyle=orthogonalEdgeStyle;rounded=0;orthogonalLoop=1;jettySize=auto;html=1;exitX=0.5;exitY=1;exitDx=0;exitDy=0;exitPerimeter=0;" edge="1" parent="1" source="x-Y_49Q1ZM7D_lfl-HDQ-14">
          <mxGeometry relative="1" as="geometry">
            <mxPoint x="610" y="670" as="targetPoint" />
            <Array as="points">
              <mxPoint x="760" y="670" />
            </Array>
          </mxGeometry>
        </mxCell>
        <mxCell id="x-Y_49Q1ZM7D_lfl-HDQ-14" value="SALDO INSUFICIENTE" style="strokeWidth=2;html=1;shape=mxgraph.flowchart.display;whiteSpace=wrap;" vertex="1" parent="1">
          <mxGeometry x="710" y="355" width="100" height="60" as="geometry" />
        </mxCell>
        <mxCell id="x-Y_49Q1ZM7D_lfl-HDQ-49" value="&lt;h2&gt;V&lt;/h2&gt;" style="edgeStyle=orthogonalEdgeStyle;rounded=0;orthogonalLoop=1;jettySize=auto;html=1;exitX=1;exitY=0.5;exitDx=0;exitDy=0;exitPerimeter=0;entryX=0;entryY=0.5;entryDx=0;entryDy=0;entryPerimeter=0;" edge="1" parent="1" source="x-Y_49Q1ZM7D_lfl-HDQ-16" target="x-Y_49Q1ZM7D_lfl-HDQ-14">
          <mxGeometry y="-25" relative="1" as="geometry">
            <mxPoint as="offset" />
          </mxGeometry>
        </mxCell>
        <mxCell id="x-Y_49Q1ZM7D_lfl-HDQ-50" value="&lt;h2&gt;F&lt;/h2&gt;" style="edgeStyle=orthogonalEdgeStyle;rounded=0;orthogonalLoop=1;jettySize=auto;html=1;exitX=0.5;exitY=1;exitDx=0;exitDy=0;exitPerimeter=0;entryX=0.5;entryY=0;entryDx=0;entryDy=0;" edge="1" parent="1" source="x-Y_49Q1ZM7D_lfl-HDQ-16" target="x-Y_49Q1ZM7D_lfl-HDQ-9">
          <mxGeometry x="-0.3333" y="20" relative="1" as="geometry">
            <mxPoint as="offset" />
          </mxGeometry>
        </mxCell>
        <mxCell id="x-Y_49Q1ZM7D_lfl-HDQ-16" value="SALDO &amp;gt;= QUANTIDADE" style="strokeWidth=2;html=1;shape=mxgraph.flowchart.decision;whiteSpace=wrap;" vertex="1" parent="1">
          <mxGeometry x="550" y="335" width="100" height="100" as="geometry" />
        </mxCell>
        <mxCell id="x-Y_49Q1ZM7D_lfl-HDQ-53" style="edgeStyle=orthogonalEdgeStyle;rounded=0;orthogonalLoop=1;jettySize=auto;html=1;exitX=0.5;exitY=1;exitDx=0;exitDy=0;exitPerimeter=0;" edge="1" parent="1" source="x-Y_49Q1ZM7D_lfl-HDQ-36">
          <mxGeometry relative="1" as="geometry">
            <mxPoint x="480" y="670" as="targetPoint" />
            <Array as="points">
              <mxPoint x="600" y="670" />
            </Array>
          </mxGeometry>
        </mxCell>
        <mxCell id="x-Y_49Q1ZM7D_lfl-HDQ-36" value="- QUANTIDADE" style="strokeWidth=2;html=1;shape=mxgraph.flowchart.display;whiteSpace=wrap;" vertex="1" parent="1">
          <mxGeometry x="550" y="570" width="100" height="60" as="geometry" />
        </mxCell>
        <mxCell id="x-Y_49Q1ZM7D_lfl-HDQ-57" value="&lt;h2&gt;V&lt;/h2&gt;" style="edgeStyle=orthogonalEdgeStyle;rounded=0;orthogonalLoop=1;jettySize=auto;html=1;exitX=0.5;exitY=0;exitDx=0;exitDy=0;exitPerimeter=0;" edge="1" parent="1" source="x-Y_49Q1ZM7D_lfl-HDQ-42" target="x-Y_49Q1ZM7D_lfl-HDQ-54">
          <mxGeometry x="0.2" y="-16" relative="1" as="geometry">
            <mxPoint as="offset" />
          </mxGeometry>
        </mxCell>
        <mxCell id="x-Y_49Q1ZM7D_lfl-HDQ-58" value="&lt;h2&gt;F&lt;/h2&gt;" style="edgeStyle=orthogonalEdgeStyle;rounded=0;orthogonalLoop=1;jettySize=auto;html=1;exitX=0.5;exitY=1;exitDx=0;exitDy=0;exitPerimeter=0;entryX=0.5;entryY=0.173;entryDx=0;entryDy=0;entryPerimeter=0;" edge="1" parent="1" source="x-Y_49Q1ZM7D_lfl-HDQ-42" target="x-Y_49Q1ZM7D_lfl-HDQ-55">
          <mxGeometry x="-0.206" y="16" relative="1" as="geometry">
            <mxPoint as="offset" />
          </mxGeometry>
        </mxCell>
        <mxCell id="x-Y_49Q1ZM7D_lfl-HDQ-42" value="ENCERRAR&lt;br&gt;s/n?" style="strokeWidth=2;html=1;shape=mxgraph.flowchart.display;whiteSpace=wrap;" vertex="1" parent="1">
          <mxGeometry x="364" y="640" width="100" height="60" as="geometry" />
        </mxCell>
        <mxCell id="x-Y_49Q1ZM7D_lfl-HDQ-59" style="edgeStyle=orthogonalEdgeStyle;rounded=0;orthogonalLoop=1;jettySize=auto;html=1;exitX=0.5;exitY=0;exitDx=0;exitDy=0;" edge="1" parent="1" source="x-Y_49Q1ZM7D_lfl-HDQ-54">
          <mxGeometry relative="1" as="geometry">
            <mxPoint x="414" y="330" as="targetPoint" />
          </mxGeometry>
        </mxCell>
        <mxCell id="x-Y_49Q1ZM7D_lfl-HDQ-54" value="&lt;br&gt;n" style="html=1;strokeWidth=2;shape=manualInput;whiteSpace=wrap;rounded=1;size=26;arcSize=11;" vertex="1" parent="1">
          <mxGeometry x="364" y="530" width="100" height="60" as="geometry" />
        </mxCell>
        <mxCell id="x-Y_49Q1ZM7D_lfl-HDQ-60" style="edgeStyle=orthogonalEdgeStyle;rounded=0;orthogonalLoop=1;jettySize=auto;html=1;exitX=0.5;exitY=1;exitDx=0;exitDy=0;entryX=0.5;entryY=0;entryDx=0;entryDy=0;entryPerimeter=0;" edge="1" parent="1" source="x-Y_49Q1ZM7D_lfl-HDQ-55" target="x-Y_49Q1ZM7D_lfl-HDQ-56">
          <mxGeometry relative="1" as="geometry" />
        </mxCell>
        <mxCell id="x-Y_49Q1ZM7D_lfl-HDQ-55" value="&lt;br&gt;s" style="html=1;strokeWidth=2;shape=manualInput;whiteSpace=wrap;rounded=1;size=26;arcSize=11;" vertex="1" parent="1">
          <mxGeometry x="364" y="740" width="100" height="60" as="geometry" />
        </mxCell>
        <mxCell id="x-Y_49Q1ZM7D_lfl-HDQ-56" value="FIM" style="strokeWidth=2;html=1;shape=mxgraph.flowchart.terminator;whiteSpace=wrap;" vertex="1" parent="1">
          <mxGeometry x="364" y="850" width="100" height="40" as="geometry" />
        </mxCell>
      </root>
    </mxGraphModel>
  </diagram>
</mxfile>
